HIERARCHY
ROOT hip
{
	OFFSET 0.000000 0.000000 0.000000 
	CHANNELS 6 Xposition Yposition Zposition Xrotation Zrotation Yrotation
	JOINT abdomen
	{
		OFFSET 0.000000 3.402643 0.000000 
		CHANNELS 3 Xrotation Zrotation Yrotation
		JOINT chest
		{
			OFFSET 0.000000 8.438565 -0.680529 
			CHANNELS 3 Xrotation Zrotation Yrotation
			JOINT neck
			{
				OFFSET 0.000000 10.207942 -0.272212 
				CHANNELS 3 Xrotation Zrotation Yrotation
				JOINT head
				{
					OFFSET 0.000000 3.130431 0.000000 
					CHANNELS 3 Xrotation Zrotation Yrotation
					End Site
					{
						OFFSET 0.000000 3.130435 0.000000 
					}
				}
			}
			JOINT lCollar
			{
				OFFSET 3.470700 6.669187 -0.816635 
				CHANNELS 3 Yrotation Zrotation Xrotation
				JOINT lShldr
				{
					OFFSET 3.198488 0.000000 0.000000 
					CHANNELS 3 Zrotation Yrotation Xrotation
					JOINT lForeArm
					{
						OFFSET 10.139888 0.000000 0.000000 
						CHANNELS 3 Yrotation Zrotation Xrotation
						JOINT lHand
						{
							OFFSET 8.370511 0.000000 0.000000 
							CHANNELS 3 Zrotation Yrotation Xrotation
							End Site
							{
								OFFSET 4.083176 0.000000 0.000000 
							}
						}
					}
				}
			}
			JOINT rCollar
			{
				OFFSET -3.470700 6.669187 -0.816635 
				CHANNELS 3 Yrotation Zrotation Xrotation
				JOINT rShldr
				{
					OFFSET -3.198488 0.000000 0.000000 
					CHANNELS 3 Zrotation Yrotation Xrotation
					JOINT rForeArm
					{
						OFFSET -10.139888 0.000000 0.000000 
						CHANNELS 3 Yrotation Zrotation Xrotation
						JOINT rHand
						{
							OFFSET -8.370511 0.000000 0.000000 
							CHANNELS 3 Zrotation Yrotation Xrotation
							End Site
							{
								OFFSET -4.083176 0.000000 0.000000 
							}
						}
					}
				}
			}
		}
	}
	JOINT lThigh
	{
		OFFSET 5.308129 -1.633274 1.361059 
		CHANNELS 3 Xrotation Zrotation Yrotation
		JOINT lShin
		{
			OFFSET -2.041588 -20.007561 0.000000 
			CHANNELS 3 Xrotation Zrotation Yrotation
			JOINT lFoot
			{
				OFFSET 0.000000 -19.190928 -1.224953 
				CHANNELS 3 Xrotation Yrotation Zrotation
				End Site
				{
					OFFSET 0.000000 -2.449906 4.627600 
				}
			}
		}
	}
	JOINT rThigh
	{
		OFFSET -5.308129 -1.633274 1.361059 
		CHANNELS 3 Xrotation Zrotation Yrotation
		JOINT rShin
		{
			OFFSET 2.041588 -20.007561 0.000000 
			CHANNELS 3 Xrotation Zrotation Yrotation
			JOINT rFoot
			{
				OFFSET 0.000000 -19.190928 -1.224953 
				CHANNELS 3 Xrotation Yrotation Zrotation
				End Site
				{
					OFFSET 0.000000 -2.449906 4.627600 
				}
			}
		}
	}
}
MOTION
Frames: 16
Frame Time: 0.033333
0.009376 44.799355 0.108300 0.000000 5.009766 85.996094 0.000000 0.000000 0.000000 11.929281 -1.719873 5.681499 17.943285 2.152032 0.090827 -21.475830 3.711512 2.462262 5.232256 14.198905 23.178690 -89.177376 -7.471444 -1.195836 -41.004143 -5.634220 96.434959 -16.049534 -8.433477 -55.411648 -21.791170 -5.011692 22.409317 68.148972 14.360790 68.527321 34.847115 -33.971092 42.564487 32.945724 -4.185213 -80.798355 21.760298 1.642591 16.639891 8.133155 3.553736 1.080383 -3.012960 -14.993990 12.399897 13.028350 -3.161868 -0.021233 24.556326 -1.976649 0.757939 8.974961 -2.276202 15.064185 
0.047333 44.795258 0.086747 0.362763 5.097555 86.331802 0.000000 0.000000 0.000000 11.931755 -2.073396 5.597060 17.994488 2.328406 0.095109 -21.460148 3.551297 2.204715 4.723104 14.038744 23.338207 -89.256721 -7.436358 -1.156884 -41.059124 -5.168636 96.264732 -16.075163 -8.287894 -55.447823 -22.122860 -4.814392 22.462936 67.919228 14.133056 68.440048 34.639297 -33.919971 42.101414 33.075420 -3.841204 -80.815628 21.739420 1.164504 16.483192 8.190160 3.884863 1.166360 -3.154890 -15.161318 11.740810 12.899595 -3.672409 -0.166635 25.094534 -1.680753 0.859087 8.712831 -2.549331 14.962571 
0.123008 44.807411 0.071464 0.686564 5.331650 86.890602 0.000000 0.000000 0.000000 12.012625 -2.397559 5.524779 18.136597 2.683127 0.126279 -21.435570 3.112074 1.785872 4.074123 14.194458 23.503460 -89.646660 -7.387687 -0.952063 -40.930614 -4.764088 95.400276 -16.125990 -8.006483 -55.550938 -22.716209 -4.664016 22.459532 67.411919 13.664946 68.229935 35.108269 -33.615200 42.139103 32.981125 -3.989279 -80.814636 21.963186 0.676437 16.299810 8.053513 4.335552 1.249417 -3.185457 -15.685504 11.765986 13.321789 -4.226170 -0.339592 25.092236 -1.181803 0.960513 8.438839 -3.024245 14.770479 
0.179390 44.814102 0.099205 0.627858 5.468424 87.169868 0.000000 0.000000 0.000000 12.041525 -2.349544 5.533739 18.246305 2.813218 0.129077 -21.380035 2.893687 1.622789 3.952653 14.598440 23.513826 -90.152267 -7.354702 -0.698234 -40.719234 -4.769392 94.601738 -16.187389 -7.705945 -55.653347 -23.076252 -4.714681 22.406477 66.999710 13.222146 68.085960 35.914547 -33.295132 42.750751 32.823505 -4.392383 -80.799858 22.214661 0.704001 16.282913 7.907540 4.521284 1.288353 -3.161818 -16.067318 12.315487 13.972811 -4.208406 -0.352251 24.457401 -0.951535 0.977987 8.509860 -3.276222 14.664987 
0.192118 44.820732 0.171475 0.176588 5.478490 86.970840 0.000000 0.000000 0.000000 12.047878 -1.919688 5.625423 18.233358 2.618094 0.119333 -21.328041 3.115440 1.880129 4.383938 14.989333 23.359077 -90.561584 -7.307045 -0.483316 -40.617882 -5.022381 94.308769 -16.002615 -7.649723 -55.725807 -22.971056 -4.817658 22.363548 66.815445 13.045727 68.006775 36.368122 -33.113548 43.281876 32.785500 -4.432096 -80.773804 22.372755 1.289208 16.473333 7.844866 4.353249 1.280004 -3.148883 -16.029930 12.256733 14.763738 -3.534959 -0.143439 23.045254 -1.181916 0.775029 9.240461 -3.023153 15.098606 
0.150578 44.839458 0.296079 -0.784448 5.175299 86.208824 0.000000 0.000000 0.000000 11.867045 -0.993923 5.845706 18.108837 2.103504 0.082165 -21.329454 3.725451 2.574311 5.291788 15.127476 23.072603 -90.679016 -7.097884 -0.423750 -40.715843 -5.436185 94.374130 -15.413054 -7.860528 -55.799347 -22.366596 -4.910912 22.389896 66.827049 13.192603 67.984497 36.253044 -32.996216 43.520866 33.266617 -4.287338 -80.791183 22.203539 2.569049 16.959641 8.055104 3.848376 1.145366 -3.225992 -15.469366 12.065253 15.745136 -2.050273 0.288074 20.483362 -1.962504 0.380276 10.507070 -2.226083 15.740586 
0.102283 44.879818 0.381735 -1.568234 4.900517 85.608673 0.000000 0.000000 0.000000 11.757916 -0.239018 6.014662 17.987360 1.730935 0.056925 -21.386425 4.172312 3.084602 5.968644 14.880218 22.895918 -90.453682 -6.959306 -0.540081 -41.114376 -5.811946 95.240471 -15.329948 -7.964657 -55.777199 -21.757195 -4.849947 22.483004 66.899452 13.469791 67.973892 35.781902 -33.027512 43.645786 33.498207 -4.254299 -80.801033 21.997686 3.574889 17.339745 8.288909 3.457691 1.034927 -3.305438 -15.033446 11.961709 16.644579 -0.888219 0.622638 18.257750 -2.580628 0.069010 11.175616 -1.588131 16.382219 
0.071843 44.945320 0.422887 -2.087587 4.860069 85.331505 0.000000 0.000000 0.000000 11.855600 0.267605 6.120675 17.898045 1.588991 0.044764 -21.504316 4.404357 3.348748 6.290423 14.519640 22.845669 -90.192825 -6.946054 -0.676906 -41.591141 -6.050075 96.218201 -15.720219 -7.814321 -55.718235 -21.281225 -4.605712 22.626291 66.819473 13.699170 67.881271 35.313095 -33.180546 44.061859 33.169449 -4.259630 -80.740692 21.966738 4.180351 17.564373 8.405944 3.321004 0.997041 -3.331889 -14.856869 11.903998 17.737816 -0.204750 0.816231 16.267519 -2.844088 -0.161260 11.682675 -1.167891 17.165222 
0.124481 45.035576 0.410810 -2.324761 5.395972 85.660225 0.000000 0.000000 0.000000 12.402891 0.534112 6.162466 17.929201 1.776531 0.060442 -21.715826 4.310471 3.235677 6.083010 14.360464 22.927153 -90.293953 -7.048970 -0.618122 -41.783672 -6.044872 96.404587 -16.273096 -7.289085 -55.762836 -21.186327 -4.223830 22.789433 66.482712 13.660400 67.692970 34.876305 -33.260509 43.870430 32.649651 -4.405122 -80.687454 22.622488 4.336805 17.550920 8.167751 3.417142 1.024186 -3.297496 -14.954771 11.516102 20.146950 -0.107254 0.837829 13.388627 -2.558976 -0.347417 12.685728 -1.138593 17.889534 
0.107782 45.032028 0.401393 -2.176836 5.172066 85.849396 0.000000 0.000000 0.000000 12.197569 0.400897 6.141412 17.862452 1.929417 0.070823 -21.720842 4.200461 3.250032 6.231987 14.726077 22.835806 -90.704536 -7.167638 -0.413857 -41.499779 -6.070015 95.851883 -16.379507 -6.843717 -55.900307 -21.057642 -4.254257 22.797943 66.624527 13.541808 67.802040 34.583065 -33.506428 43.611355 32.644409 -4.102432 -80.676941 22.221012 4.170551 17.545197 8.297754 3.564773 1.060333 -3.284153 -15.183741 11.410574 21.115479 -0.302658 0.781566 11.355910 -2.392112 -0.483555 13.214977 -1.073807 17.820314 
0.065063 44.986889 0.390325 -1.881054 4.597141 86.011772 0.000000 0.000000 0.000000 11.630876 0.095651 6.093923 17.756960 2.101497 0.084991 -21.657150 4.084880 3.284682 6.395059 15.241755 22.736664 -91.115974 -7.266788 -0.199730 -41.014263 -6.079974 95.025055 -16.075142 -6.831641 -56.001118 -21.009857 -4.450346 22.717873 66.939613 13.442855 68.002907 34.445663 -33.650002 43.126728 33.183300 -3.927325 -80.738358 21.372213 3.897165 17.524460 8.543510 3.711840 1.076634 -3.309171 -15.431404 11.306546 21.561014 -0.605662 0.696981 9.411053 -2.294265 -0.618621 13.790192 -1.160499 17.462904 
0.007392 44.927898 0.380708 -1.575834 3.855968 86.066116 0.000000 0.000000 0.000000 10.898525 -0.230148 6.049397 17.650919 2.219404 0.090386 -21.567020 4.037869 3.349612 6.615487 15.759047 22.608900 -91.447227 -7.420553 -0.034329 -40.247906 -5.994102 93.978600 -15.330154 -7.485744 -55.990803 -20.945057 -4.715509 22.620977 67.300423 13.395330 68.221657 34.811882 -33.870892 43.859482 33.761780 -3.791100 -80.777580 20.360331 3.633189 17.525278 8.755214 3.788645 1.080114 -3.292637 -15.537601 11.368579 21.702389 -0.839725 0.616933 7.570891 -2.380604 -0.803105 14.711898 -1.108520 17.442989 
-0.019664 44.918011 0.379865 -1.546057 3.621731 85.966957 0.000000 0.000000 0.000000 10.713010 -0.268672 6.052642 17.562744 2.203372 0.090597 -21.510769 4.099397 3.397660 6.878514 15.852051 22.518366 -91.471207 -7.519564 -0.025655 -39.983269 -5.843914 94.135117 -14.907151 -8.181878 -55.877312 -20.710796 -4.841679 22.597408 67.482254 13.435120 68.325073 35.427597 -34.393467 45.484039 34.899902 -3.510631 -80.865852 20.092823 3.614405 17.518753 8.758236 3.758840 1.097694 -3.250362 -15.429261 11.206496 21.918171 -0.820235 0.626754 6.706534 -2.586898 -0.894864 15.343086 -0.701094 17.803957 
-0.029595 44.947342 0.365697 -1.585442 3.758330 85.882599 0.000000 0.000000 0.000000 10.927823 -0.230125 6.049281 17.454590 2.151759 0.088028 -21.464333 4.160579 3.279110 6.991863 15.637776 22.509983 -91.313492 -7.570210 -0.103913 -40.056911 -5.678647 94.737221 -14.909577 -8.357911 -55.799889 -20.472231 -4.830890 22.626326 67.475983 13.551819 68.301376 36.007534 -34.887115 46.592506 36.252903 -3.307630 -81.004807 20.316614 3.604689 17.499466 8.605854 3.717423 1.096514 -3.192995 -15.267131 11.034812 22.222431 -0.839530 0.602776 6.446972 -2.634772 -0.920585 15.567057 -0.263120 18.137754 
-0.034376 45.000637 0.340429 -1.703684 4.148562 85.795006 0.000000 0.000000 0.000000 11.455091 -0.086140 6.066514 17.287302 2.055608 0.078575 -21.388214 4.214602 3.010721 6.932970 15.260396 22.567888 -91.029701 -7.624225 -0.250632 -40.090698 -5.537153 94.673836 -15.108746 -8.072892 -55.822422 -20.277525 -4.743770 22.676868 67.330956 13.728705 68.181480 36.250526 -34.940975 45.954170 36.527737 -3.626705 -81.089348 20.862795 3.673080 17.470543 8.374043 3.611124 1.072247 -3.056592 -15.219907 11.419518 22.278885 -0.878736 0.606253 7.037877 -2.440270 -0.824647 15.245684 -0.360666 17.885151 
-0.049362 45.035194 0.317165 -1.841395 4.411792 85.776695 0.000000 0.000000 0.000000 11.855480 0.076459 6.080516 17.130455 2.013680 0.077657 -21.299089 4.192926 2.807140 6.722465 15.053996 22.655802 -90.753967 -7.707982 -0.387459 -40.113567 -5.688209 94.510178 -15.445242 -7.558849 -55.884453 -20.220491 -4.678726 22.707668 67.225098 13.898018 68.080521 36.353962 -34.773479 44.607643 35.887604 -4.298474 -81.066696 21.236586 3.790097 17.480104 8.205413 3.483247 1.066621 -2.943539 -15.259787 11.689551 21.810982 -0.839599 0.604507 8.254353 -2.216361 -0.684514 14.582037 -0.890077 17.240698 
